<?xml version="1.0" standalone="no"?>
<!DOCTYPE svg PUBLIC "-//W3C//DTD SVG 1.1//EN" "http://www.w3.org/Graphics/SVG/1.1/DTD/svg11.dtd" >
<svg xmlns="http://www.w3.org/2000/svg">
<metadata></metadata>
<defs>
<font id="proxima_novasemibold_it" horiz-adv-x="1189" >
<font-face units-per-em="2048" ascent="1618" descent="-430" />
<missing-glyph horiz-adv-x="526" />
<glyph unicode="&#xfb01;" horiz-adv-x="1124" d="M80 0l178 801h-164l41 188h164l12 55q36 165 124.5 253.5t226.5 88.5q122 0 202 -53l-78 -151q-38 28 -100 28q-64 0 -102.5 -40.5t-57.5 -125.5l-12 -55h201l-41 -188h-201l-178 -801h-215zM905 1225q0 68 47 109.5t103 41.5q52 0 86.5 -33.5t34.5 -80.5q0 -68 -47 -110 t-103 -42q-52 0 -86.5 33.5t-34.5 81.5zM659 0l220 989h215l-220 -989h-215z" />
<glyph unicode="&#xfb02;" horiz-adv-x="1124" d="M80 0l178 801h-164l41 188h164l12 55q36 165 124.5 253.5t226.5 88.5q122 0 202 -53l-78 -151q-38 28 -100 28q-64 0 -102.5 -40.5t-57.5 -125.5l-12 -55h201l-41 -188h-201l-178 -801h-215zM659 0l302 1366h215l-302 -1366h-215z" />
<glyph unicode="&#xfb03;" horiz-adv-x="1757" d="M80 0l178 801h-164l41 188h164l12 55q36 165 124.5 253.5t226.5 88.5q122 0 202 -53l-78 -151q-38 28 -100 28q-64 0 -102.5 -40.5t-57.5 -125.5l-12 -55h201l-41 -188h-201l-178 -801h-215zM711 0l178 801h-164l41 188h164l12 55q36 165 124 253.5t226 88.5 q123 0 203 -53l-78 -151q-38 28 -100 28q-64 0 -102.5 -40.5t-57.5 -125.5l-12 -55h201l-41 -188h-201l-178 -801h-215zM1538 1225q0 68 47 109.5t103 41.5q52 0 86 -33.5t34 -80.5q0 -68 -46.5 -110t-102.5 -42q-52 0 -86.5 33.5t-34.5 81.5zM1292 0l219 989h215l-219 -989 h-215z" />
<glyph unicode="&#xfb04;" horiz-adv-x="1757" d="M80 0l178 801h-164l41 188h164l12 55q36 165 124.5 253.5t226.5 88.5q122 0 202 -53l-78 -151q-38 28 -100 28q-64 0 -102.5 -40.5t-57.5 -125.5l-12 -55h201l-41 -188h-201l-178 -801h-215zM711 0l178 801h-164l41 188h164l12 55q36 165 124 253.5t226 88.5 q123 0 203 -53l-78 -151q-38 28 -100 28q-64 0 -102.5 -40.5t-57.5 -125.5l-12 -55h201l-41 -188h-201l-178 -801h-215zM1292 0l301 1366h215l-301 -1366h-215z" />
<glyph horiz-adv-x="0" />
<glyph horiz-adv-x="682" />
<glyph horiz-adv-x="0" />
<glyph horiz-adv-x="0" />
<glyph unicode=" "  horiz-adv-x="526" />
<glyph unicode="&#x09;" horiz-adv-x="526" />
<glyph unicode="&#xa0;" horiz-adv-x="526" />
<glyph unicode="!" horiz-adv-x="501" d="M137 418l172 948h262l-247 -948h-187zM23 109q0 64 46 109.5t111 45.5q54 0 91.5 -38.5t37.5 -94.5q0 -63 -46 -108.5t-109 -45.5q-55 0 -93 39t-38 93z" />
<glyph unicode="&#x22;" horiz-adv-x="776" d="M233 801l29 442q2 62 41.5 102.5t97.5 40.5q43 0 75 -32t32 -78q0 -25 -12 -55l-164 -420h-99zM575 801l29 442q2 62 41.5 102.5t97.5 40.5q43 0 75 -32t32 -78q0 -25 -12 -55l-164 -420h-99z" />
<glyph unicode="#" horiz-adv-x="1241" d="M385 0l199 356h-209l-197 -356h-164l199 356h-207l76 142h209l205 368h-209l73 140h213l199 360h164l-199 -360h207l199 360h164l-201 -360h209l-72 -140h-213l-207 -368h217l-75 -142h-220l-196 -356h-164zM866 866h-207l-204 -368h204z" />
<glyph unicode="$" horiz-adv-x="1239" d="M778 795q61 -24 106 -44.5t96 -54t83.5 -69.5t54 -87.5t21.5 -111.5q0 -200 -156 -331t-387 -122l-41 -180h-164l43 199q-133 26 -240 87t-167 144l153 176q51 -69 129.5 -119t173.5 -75l86 393q-63 25 -105 45t-94 53t-83 68t-52.5 86t-21.5 111q0 96 45 178.5 t119.5 137t170.5 83t197 24.5l41 187h164l-45 -207q107 -23 195.5 -74.5t146.5 -124.5l-153 -170q-85 109 -238 154zM627 854l71 322q-92 3 -161.5 -48.5t-69.5 -126.5q0 -46 41 -80t119 -67zM643 188q61 1 109 19t75.5 47t41.5 62.5t14 68.5q0 50 -42 86.5t-120 71.5z" />
<glyph unicode="%" horiz-adv-x="1527" d="M172 989q0 174 109.5 285.5t263.5 111.5q133 0 225 -77t92 -203q0 -174 -109.5 -285.5t-263.5 -111.5q-133 0 -225 77t-92 203zM154 0l1173 1366h137l-1175 -1366h-135zM705 1092q0 68 -47 112.5t-119 44.5q-86 0 -147.5 -69.5t-61.5 -175.5q0 -69 47 -114.5t119 -45.5 q85 0 147 71t62 177zM743 256q0 115 52.5 207t137 141t183.5 49q133 0 226.5 -77.5t93.5 -202.5q0 -174 -110.5 -286t-262.5 -112q-133 0 -226.5 78t-93.5 203zM1276 358q0 68 -46 113t-118 45q-87 0 -148 -69.5t-61 -176.5q0 -69 46 -114t118 -45q86 0 147.5 70t61.5 177z " />
<glyph unicode="&#x26;" horiz-adv-x="1318" d="M1231 549q-140 -203 -262 -322q65 -96 166 -227h-261q-5 7 -29.5 39.5t-39.5 52.5q-177 -117 -356 -117q-123 0 -218 37t-153 118t-58 198q0 95 31.5 170t91.5 128.5t123 88.5t150 69q-41 118 -41 224q0 159 117 268.5t282 109.5q142 0 238 -69.5t96 -194.5 q0 -39 -8.5 -74.5t-20.5 -63.5t-35 -55t-44 -46.5t-55 -40.5t-59.5 -34.5t-67.5 -31t-68 -27t-72 -26.5q41 -84 88 -164q72 -129 108 -184q126 135 199 270zM594 1010q0 -67 29 -152q67 23 113.5 44t89 50t64 66.5t21.5 83.5q0 61 -36 93t-93 32q-73 0 -130.5 -58.5 t-57.5 -158.5zM481 147q104 0 228 82q-91 133 -129 203q-74 137 -107 209q-104 -51 -160.5 -118t-56.5 -169q0 -100 64.5 -153.5t160.5 -53.5z" />
<glyph unicode="'" horiz-adv-x="438" d="M233 801l29 442q2 62 41.5 102.5t97.5 40.5q43 0 75 -32t32 -78q0 -25 -12 -55l-164 -420h-99z" />
<glyph unicode="(" horiz-adv-x="565" d="M197 -408q-72 121 -110 280.5t-38 332.5q0 318 144 633t401 565l113 -113q-433 -543 -433 -1151q0 -209 78 -458z" />
<glyph unicode=")" horiz-adv-x="565" d="M365 1403q72 -121 110.5 -281t38.5 -331q0 -319 -144.5 -633.5t-402.5 -565.5l-110 113q207 258 319.5 548.5t112.5 600.5q0 212 -78 461z" />
<glyph unicode="*" horiz-adv-x="708" d="M354 770l64 236l-221 -101l-33 103l225 79l-178 125l78 91l164 -142l39 225h116l-65 -235l221 100l33 -102l-224 -82l179 -123l-80 -90l-164 141l-37 -225h-117z" />
<glyph unicode="+" horiz-adv-x="1028" d="M616 621l-94 -424h-151l94 424h-379l31 139h379l90 409h151l-90 -409h379l-31 -139h-379z" />
<glyph unicode="," horiz-adv-x="501" d="M43 -260l-80 84q60 29 114.5 76t74.5 96h-21q-45 0 -76.5 31t-31.5 84q0 62 47 107.5t108 45.5q58 0 97.5 -39t39.5 -108q0 -106 -78 -212.5t-194 -164.5z" />
<glyph unicode="-" horiz-adv-x="614" d="M39 403l41 185h491l-41 -185h-491z" />
<glyph unicode="." horiz-adv-x="501" d="M23 109q0 64 46 109.5t111 45.5q54 0 91.5 -38.5t37.5 -94.5q0 -63 -46 -108.5t-109 -45.5q-55 0 -93 39t-38 93z" />
<glyph unicode="/" horiz-adv-x="645" d="M-123 -41l805 1448h168l-807 -1448h-166z" />
<glyph unicode="0" horiz-adv-x="1261" d="M102 518q0 128 30 254.5t88.5 236.5t138 194.5t185 133.5t222.5 49q220 0 345.5 -143t125.5 -397q0 -162 -48 -317.5t-132 -279t-210.5 -199t-271.5 -75.5q-221 0 -347 144t-126 399zM995 858q0 145 -61.5 230.5t-190.5 85.5q-73 0 -138 -42t-111.5 -111t-81 -156 t-51.5 -179.5t-17 -179.5q0 -145 62.5 -231.5t191.5 -86.5q90 0 167.5 63.5t126 163.5t76 216t27.5 227z" />
<glyph unicode="1" horiz-adv-x="778" d="M283 0l231 1055l-272 -232l-109 146l481 397h209l-301 -1366h-239z" />
<glyph unicode="2" horiz-adv-x="1218" d="M-8 0l49 225q138 81 229.5 136t195.5 121.5t169.5 115t130.5 104t100.5 101t57.5 94t22 94.5q0 85 -73.5 135t-192.5 50q-199 0 -344 -127l-105 170q85 77 209.5 122t255.5 45q101 0 190.5 -24.5t159.5 -70.5t111 -119.5t41 -165.5q0 -84 -39 -169t-105.5 -162 t-168 -158.5t-212 -153.5t-251.5 -152h604l-45 -211h-989z" />
<glyph unicode="3" horiz-adv-x="1175" d="M-18 260l163 141q58 -100 169.5 -156.5t230.5 -56.5q131 0 204.5 64t73.5 166q0 78 -68 125t-204 47q-129 0 -152 -2l50 215q23 -2 188 -2q130 0 211.5 48t81.5 146q0 79 -77.5 129t-209.5 50q-194 0 -338 -121l-90 164q83 78 202 123.5t247 45.5q232 0 372 -93.5 t140 -258.5q0 -92 -56 -169t-139 -120.5t-174 -52.5q111 -27 181.5 -102t70.5 -195q0 -117 -67 -213.5t-184.5 -151.5t-260.5 -55q-185 0 -342 77t-223 208z" />
<glyph unicode="4" horiz-adv-x="1187" d="M598 0l68 309h-652l47 211l734 846h344l-189 -846h183l-46 -211h-182l-67 -309h-240zM852 1151l-557 -631h416z" />
<glyph unicode="5" horiz-adv-x="1228" d="M51 242l174 149q110 -203 371 -203q129 0 212 77.5t83 189.5q0 102 -77.5 159.5t-203.5 57.5q-79 0 -139.5 -21.5t-124.5 -68.5l-156 67l158 717h895l-47 -211h-655l-82 -377q115 90 278 90q111 0 201.5 -43.5t146.5 -133t56 -210.5q0 -137 -68.5 -252t-195.5 -184.5 t-287 -69.5q-378 0 -539 267z" />
<glyph unicode="6" horiz-adv-x="1230" d="M94 494q0 127 28 252.5t87 241t141 204t199 141.5t252 53q287 0 438 -194l-152 -166q-46 70 -125 109t-176 39q-82 0 -152.5 -35.5t-121 -96.5t-86 -131t-57.5 -149q-11 -25 -15 -49q59 64 160.5 110.5t210.5 46.5q185 0 304.5 -100t119.5 -268q0 -141 -73 -262.5 t-199.5 -193t-276.5 -71.5q-239 0 -372.5 136.5t-133.5 382.5zM899 471q0 94 -78.5 149.5t-202.5 55.5q-160 0 -288 -131q-4 -32 -4 -82q0 -125 75 -200t201 -75t211.5 83t85.5 200z" />
<glyph unicode="7" horiz-adv-x="1089" d="M129 0l766 1155h-696l47 211h985l-37 -166l-791 -1200h-274z" />
<glyph unicode="8" horiz-adv-x="1218" d="M43 334q0 141 105 246.5t288 148.5q-93 39 -156 112.5t-63 168.5q0 76 30.5 139.5t81 106.5t117.5 73t138.5 43.5t146.5 13.5q96 0 185.5 -22t161.5 -63.5t115.5 -108.5t43.5 -150q0 -138 -101.5 -234t-267.5 -126q104 -51 172 -132t68 -183q0 -117 -75.5 -208 t-197 -137.5t-264.5 -46.5q-108 0 -201.5 22t-167.5 65t-116.5 113t-42.5 159zM979 999q0 73 -76.5 122.5t-185.5 49.5q-108 0 -184 -51t-76 -137q0 -64 68 -114t151 -70q137 9 220 61t83 139zM866 391q0 73 -72 128t-163 79q-144 -8 -239 -68t-95 -153q0 -91 79.5 -140 t205.5 -49q112 0 198 56.5t86 146.5z" />
<glyph unicode="9" horiz-adv-x="1230" d="M1214 870q0 -106 -20 -211.5t-59 -205.5t-99.5 -186.5t-137 -151t-177.5 -101.5t-215 -37q-287 0 -436 193l151 168q44 -71 123 -109.5t178 -38.5q82 0 152.5 35.5t121 96t86 130t58.5 148.5q12 35 14 49q-61 -64 -162 -110.5t-208 -46.5q-185 0 -305.5 101t-120.5 269 q0 141 73.5 262t201 193t276.5 72q239 0 372 -136.5t133 -382.5zM408 893q0 -94 79 -150.5t201 -56.5q160 0 291 131q2 16 2 82q0 125 -75 201t-199 76q-127 0 -213 -83.5t-86 -199.5z" />
<glyph unicode=":" horiz-adv-x="501" d="M186 850q0 63 46.5 108.5t109.5 45.5q55 0 93 -39t38 -93q0 -64 -46.5 -109.5t-111.5 -45.5q-54 0 -91.5 38.5t-37.5 94.5zM23 109q0 64 46 109.5t111 45.5q54 0 91.5 -38.5t37.5 -94.5q0 -63 -46 -108.5t-109 -45.5q-55 0 -93 39t-38 93z" />
<glyph unicode=";" horiz-adv-x="501" d="M186 850q0 63 46.5 108.5t109.5 45.5q55 0 93 -39t38 -93q0 -64 -46.5 -109.5t-111.5 -45.5q-54 0 -91.5 38.5t-37.5 94.5zM43 -260l-80 84q60 29 114.5 76t74.5 96h-21q-45 0 -76.5 31t-31.5 84q0 62 47 107.5t108 45.5q58 0 97.5 -39t39.5 -108q0 -106 -78 -212.5 t-194 -164.5z" />
<glyph unicode="&#x3c;" horiz-adv-x="1028" d="M82 608l35 154l1003 426l-39 -172l-821 -340l672 -334l-35 -158z" />
<glyph unicode="=" horiz-adv-x="1028" d="M127 809l31 139h909l-31 -139h-909zM41 420l31 137h909l-31 -137h-909z" />
<glyph unicode="&#x3e;" horiz-adv-x="1028" d="M-12 184l39 172l821 334l-672 340l35 158l815 -426l-35 -154z" />
<glyph unicode="?" horiz-adv-x="937" d="M365 401q-41 62 -41 144q0 34 8 65t19.5 54t33.5 47t39 39t47.5 34.5t48 29.5t51.5 28q39 21 58.5 32t49.5 32t44 38t25.5 41t11.5 51q0 64 -53 102t-150 38q-157 0 -276 -113l-105 164q179 159 414 159q119 0 215 -36t152.5 -105t56.5 -160q0 -34 -6 -65t-14 -55 t-25.5 -49t-30 -41.5t-38 -37t-40 -31.5t-45.5 -29t-44 -25t-46 -25q-41 -22 -61 -33.5t-50.5 -32.5t-45.5 -38.5t-26.5 -42.5t-11.5 -52q0 -38 29 -67zM233 109q0 64 46.5 109.5t109.5 45.5q55 0 93 -38.5t38 -94.5q0 -63 -46.5 -108.5t-111.5 -45.5q-54 0 -91.5 39 t-37.5 93z" />
<glyph unicode="@" horiz-adv-x="1603" d="M113 500q0 214 114 401t301.5 296.5t397.5 109.5q189 0 338 -87t228 -231.5t79 -318.5q0 -120 -35 -217.5t-91.5 -156.5t-123 -90.5t-133.5 -31.5q-86 0 -136.5 45.5t-58.5 112.5l-2 12q-55 -77 -137.5 -123.5t-169.5 -46.5q-144 0 -229.5 94.5t-85.5 245.5 q0 136 67.5 253.5t176 185t227.5 67.5q91 0 158.5 -40.5t99.5 -105.5l24 115h193l-111 -522q-4 -24 -4 -47q0 -48 23.5 -73t60.5 -25q32 0 66 19.5t66 58.5t52.5 109.5t20.5 160.5q0 249 -156.5 405t-414.5 156q-115 0 -225.5 -38.5t-200.5 -107.5t-159 -159t-107 -199.5 t-38 -222.5q0 -161 75 -292.5t208.5 -206.5t298.5 -75q198 0 377 113l41 -57q-200 -129 -426 -129q-183 0 -332 85t-233 232t-84 326zM1014 483l55 258q-21 49 -68.5 87t-117.5 38q-131 0 -223.5 -103.5t-92.5 -234.5q0 -89 50.5 -144.5t136.5 -55.5q150 0 260 155z" />
<glyph unicode="A" horiz-adv-x="1378" d="M1004 0l-43 262h-627l-158 -262h-285l838 1366h299l236 -1366h-260zM838 1124l-389 -651h491z" />
<glyph unicode="B" horiz-adv-x="1327" d="M35 0l301 1366h622q162 0 261.5 -92.5t99.5 -229.5q0 -139 -92.5 -243.5t-220.5 -116.5q90 -24 144 -103.5t54 -174.5q0 -60 -16.5 -117t-54 -110t-91.5 -92.5t-134 -63t-177 -23.5h-696zM1063 1004q0 64 -49 107.5t-119 43.5h-367l-77 -354h391q114 0 167.5 60t53.5 143 zM963 426q0 73 -48.5 118.5t-132.5 45.5h-379l-84 -379h400q113 0 178.5 62.5t65.5 152.5z" />
<glyph unicode="C" horiz-adv-x="1396" d="M104 582q0 178 64.5 331t172.5 256t250 161.5t296 58.5q219 0 368 -99t218 -260l-230 -82q-48 112 -145.5 170t-223.5 58q-101 0 -195.5 -43.5t-166.5 -118.5t-115 -184.5t-43 -233.5q0 -181 114 -294.5t304 -113.5q91 0 182 41.5t158 114.5l182 -127 q-106 -126 -248.5 -184t-287.5 -58q-185 0 -333.5 74t-234.5 213t-86 320z" />
<glyph unicode="D" horiz-adv-x="1454" d="M834 1366q113 0 218.5 -43t185.5 -118.5t128.5 -186.5t48.5 -238q0 -113 -30.5 -221.5t-99 -210.5t-168 -178.5t-248 -123t-328.5 -46.5h-506l301 1366h498zM584 211q175 0 309 77t203 202t69 276q0 167 -107 278t-270 111h-260l-209 -944h265z" />
<glyph unicode="E" horiz-adv-x="1181" d="M35 0l301 1366h936l-47 -211h-697l-77 -354h682l-48 -211h-682l-84 -379h697l-45 -211h-936z" />
<glyph unicode="F" horiz-adv-x="1150" d="M35 0l301 1366h936l-47 -211h-697l-77 -354h682l-48 -211h-682l-129 -590h-239z" />
<glyph unicode="G" horiz-adv-x="1468" d="M104 582q0 229 105.5 414t289 289t408.5 104q198 0 339.5 -90.5t213.5 -231.5l-219 -96q-43 93 -143 149t-224 56q-136 0 -255 -74.5t-192 -209t-73 -296.5q0 -180 113.5 -294t304.5 -114q170 0 309 121l47 213h-407l47 211h647l-115 -518q-104 -115 -242.5 -177.5 t-299.5 -62.5q-186 0 -334.5 74.5t-234 213.5t-85.5 319z" />
<glyph unicode="H" horiz-adv-x="1480" d="M985 0l131 596h-710l-132 -596h-239l301 1366h239l-122 -559h710l123 559h240l-301 -1366h-240z" />
<glyph unicode="I" horiz-adv-x="530" d="M35 0l301 1366h239l-301 -1366h-239z" />
<glyph unicode="J" horiz-adv-x="985" d="M-53 137l133 176q36 -58 97 -91.5t138 -33.5q109 0 177 65.5t94 182.5l205 930h239l-205 -934q-52 -233 -173.5 -345t-319.5 -112q-120 0 -222.5 41.5t-162.5 120.5z" />
<glyph unicode="K" horiz-adv-x="1271" d="M866 0l-338 586l-157 -150l-97 -436h-239l301 1366h239l-139 -631l660 631h311l-696 -645l436 -721h-281z" />
<glyph unicode="L" horiz-adv-x="1058" d="M35 0l301 1366h239l-256 -1155h603l-45 -211h-842z" />
<glyph unicode="M" horiz-adv-x="1710" d="M1214 0l232 1055l-651 -1055h-103l-186 1055l-232 -1055h-239l301 1366h328l163 -940l580 940h348l-301 -1366h-240z" />
<glyph unicode="N" horiz-adv-x="1474" d="M987 0l-489 1012l-224 -1012h-239l301 1366h246l479 -985l219 985h240l-301 -1366h-232z" />
<glyph unicode="O" horiz-adv-x="1566" d="M104 582q0 166 61 315.5t165 257.5t249.5 171t307.5 63q184 0 331.5 -72t234.5 -211t87 -322q0 -167 -61 -317t-165 -258t-249 -171t-307 -63q-137 0 -257 42.5t-208 119.5t-138.5 192t-50.5 253zM1290 768q0 187 -119 297.5t-299 110.5q-105 0 -200.5 -44.5t-165.5 -121 t-111 -185t-41 -229.5q0 -189 118 -298.5t300 -109.5q140 0 259 75.5t189 209t70 295.5z" />
<glyph unicode="P" horiz-adv-x="1245" d="M35 0l301 1366h549q189 0 297 -105.5t108 -263.5q0 -65 -17 -129.5t-58 -130t-101.5 -115.5t-156.5 -81t-214 -31h-356l-113 -510h-239zM760 721q128 0 204 73t76 181q0 76 -54.5 128t-139.5 52h-318l-96 -434h328z" />
<glyph unicode="Q" horiz-adv-x="1566" d="M1540 784q0 -198 -82 -367t-225 -280l76 -117l-193 -96l-69 107q-133 -56 -289 -56q-137 0 -257 42.5t-208 119.5t-138.5 192t-50.5 253q0 166 61 315.5t165 257.5t249.5 171t307.5 63q184 0 331.5 -72t234.5 -211t87 -322zM772 188q77 0 154 25l-138 209l191 96 l129 -194q85 80 133.5 195t48.5 249q0 187 -119 297.5t-299 110.5q-105 0 -200.5 -44.5t-165.5 -121t-111 -185t-41 -229.5q0 -189 118 -298.5t300 -109.5z" />
<glyph unicode="R" horiz-adv-x="1286" d="M827 0l-190 510h-252l-111 -510h-239l301 1366h549q107 0 199 -44t150 -131t58 -198q0 -186 -115.5 -315t-297.5 -154l213 -524h-265zM762 721q129 0 203.5 70.5t74.5 179.5q0 79 -59.5 131.5t-138.5 52.5h-314l-96 -434h330z" />
<glyph unicode="S" horiz-adv-x="1216" d="M12 225l154 176q71 -98 193.5 -155.5t263.5 -57.5q120 0 182.5 60t62.5 137q0 28 -15.5 53t-35.5 42.5t-60 37.5t-68.5 32t-82.5 32q-56 21 -83 32t-78.5 35t-79 42t-64.5 49t-55.5 61.5t-32.5 72.5t-14 89q0 82 36.5 158.5t101.5 135t162.5 94t211.5 35.5q161 0 300 -58 t222 -161l-154 -170q-69 87 -178.5 133t-222.5 46q-95 0 -160 -52.5t-65 -122.5q0 -21 8.5 -40t29 -36t38.5 -29.5t54.5 -29t59 -25t68.5 -26.5q52 -20 83.5 -32.5t80.5 -35.5t79 -43t66 -50.5t56 -62t34 -74t14 -89.5q0 -89 -35.5 -170.5t-100.5 -144.5t-165 -100.5 t-221 -37.5q-190 0 -349.5 69.5t-240.5 180.5z" />
<glyph unicode="T" horiz-adv-x="1181" d="M360 0l254 1155h-413l47 211h1067l-47 -211h-414l-254 -1155h-240z" />
<glyph unicode="U" horiz-adv-x="1472" d="M143 442q0 42 11 97l182 827h242l-181 -821q-8 -28 -8 -76q0 -123 85 -203t237 -80q163 0 254.5 93t128.5 266l182 821h242l-183 -825q-29 -132 -75 -230.5t-118.5 -176.5t-181 -118.5t-249.5 -40.5q-272 0 -420 126t-148 341z" />
<glyph unicode="V" horiz-adv-x="1378" d="M428 0l-235 1366h260l170 -1106l657 1106h285l-838 -1366h-299z" />
<glyph unicode="W" horiz-adv-x="1849" d="M1079 0l-43 1008l-487 -1008h-256l-90 1366h262l33 -1053l516 1053h190l49 -1053l498 1053h274l-690 -1366h-256z" />
<glyph unicode="X" horiz-adv-x="1353" d="M965 0l-277 524l-489 -524h-303l671 715l-340 651h273l252 -492l450 492h303l-633 -680l363 -686h-270z" />
<glyph unicode="Y" horiz-adv-x="1304" d="M422 0l125 567l-354 799h260l247 -586l502 586h289l-705 -799l-124 -567h-240z" />
<glyph unicode="Z" horiz-adv-x="1206" d="M-20 0l43 195l895 960h-682l45 211h1009l-41 -195l-899 -960h701l-47 -211h-1024z" />
<glyph unicode="[" horiz-adv-x="540" d="M-109 -389l396 1778h415l-32 -148h-258l-328 -1483h256l-33 -147h-416z" />
<glyph unicode="\" horiz-adv-x="645" d="M201 1407h159l164 -1448h-159z" />
<glyph unicode="]" horiz-adv-x="540" d="M-162 -389l33 147h256l330 1483h-258l32 148h416l-395 -1778h-414z" />
<glyph unicode="^" horiz-adv-x="894" d="M739 682l-127 535l-362 -535h-172l481 684h160l176 -684h-156z" />
<glyph unicode="_" horiz-adv-x="1155" d="M-168 -229l35 147h1165l-35 -147h-1165z" />
<glyph unicode="`" horiz-adv-x="491" d="M479 1139l-272 295h205l221 -295h-154z" />
<glyph unicode="a" d="M913 848l31 141h215l-219 -989h-215l29 131q-128 -156 -310 -156q-172 0 -275 108t-103 300q0 117 35.5 229t100 202t165 145t219.5 55q105 0 191 -44.5t136 -121.5zM291 426q0 -119 67.5 -189.5t176.5 -70.5q75 0 144 39t114 100l86 383q-35 60 -104.5 97.5t-156.5 37.5 q-94 0 -170 -56t-116.5 -146.5t-40.5 -194.5z" />
<glyph unicode="b" d="M274 141l-30 -141h-215l301 1366h215l-113 -508q131 156 311 156q170 0 274.5 -109t104.5 -301q0 -116 -36 -228t-100.5 -201.5t-164.5 -144.5t-219 -55q-106 0 -192 44t-136 122zM897 561q0 118 -68.5 190t-175.5 72q-76 0 -144.5 -39.5t-115.5 -101.5l-84 -383 q35 -59 103.5 -96t156.5 -37q142 0 235 118t93 277z" />
<glyph unicode="c" horiz-adv-x="1017" d="M68 422q0 161 74.5 297t205 215.5t287.5 79.5q274 0 389 -191l-162 -123q-34 58 -93.5 90.5t-131.5 32.5q-155 0 -252.5 -115.5t-97.5 -277.5q0 -125 77 -194.5t197 -69.5q66 0 124.5 29t100.5 77l119 -143q-146 -154 -364 -154q-213 0 -343 122t-130 325z" />
<glyph unicode="d" d="M913 848l115 518h215l-303 -1366h-215l29 131q-128 -156 -310 -156q-172 0 -275 108t-103 300q0 117 35.5 229t100 202t165 145t219.5 55q105 0 191 -44.5t136 -121.5zM291 426q0 -119 67.5 -189.5t176.5 -70.5q75 0 144 39t114 100l86 383q-35 60 -104.5 97.5 t-156.5 37.5q-94 0 -170 -56t-116.5 -146.5t-40.5 -194.5z" />
<glyph unicode="e" horiz-adv-x="1140" d="M68 418q0 161 73 297.5t203.5 217.5t288.5 81q193 0 314.5 -120.5t121.5 -318.5q0 -81 -18 -151h-766l-2 -35q0 -93 80 -165t221 -72q70 0 141.5 21t122.5 60l67 -149q-69 -51 -161.5 -80t-186.5 -29q-230 0 -364.5 119.5t-134.5 323.5zM874 575q3 9 3 29 q0 101 -68 167.5t-193 66.5q-114 0 -201 -78t-108 -185h567z" />
<glyph unicode="f" horiz-adv-x="630" d="M80 0l178 801h-164l41 188h164l12 55q36 165 124.5 253.5t226.5 88.5q122 0 202 -53l-78 -151q-38 28 -100 28q-64 0 -102.5 -40.5t-57.5 -125.5l-12 -55h201l-41 -188h-201l-178 -801h-215z" />
<glyph unicode="g" horiz-adv-x="1187" d="M-29 -231l129 143q48 -67 136 -102t194 -35q242 0 303 276l25 107q-60 -74 -142 -116t-176 -42q-78 0 -144.5 24t-118.5 71.5t-81.5 127t-29.5 183.5q0 115 35.5 223.5t100 194.5t163 138t215.5 52q93 0 184 -46t145 -120l33 141h215l-209 -938q-22 -103 -62.5 -182.5 t-89.5 -129.5t-111 -82.5t-123 -45t-128 -12.5q-312 0 -463 170zM795 324l79 358q-38 66 -110 103.5t-160 37.5q-137 0 -226 -112.5t-89 -266.5q0 -117 67.5 -185.5t180.5 -68.5q71 0 140.5 38t117.5 96z" />
<glyph unicode="h" horiz-adv-x="1163" d="M698 0l136 621q10 40 10 61q0 71 -51 106t-134 35q-69 0 -138.5 -38.5t-125.5 -96.5l-151 -688h-215l301 1366h215l-113 -512q168 160 338 160q139 0 221 -67t82 -183q0 -32 -10 -82l-150 -682h-215z" />
<glyph unicode="i" horiz-adv-x="493" d="M274 1225q0 68 47 109.5t103 41.5q52 0 86.5 -33.5t34.5 -80.5q0 -68 -47 -110t-103 -42q-52 0 -86.5 33.5t-34.5 81.5zM29 0l219 989h215l-219 -989h-215z" />
<glyph unicode="j" horiz-adv-x="493" d="M274 1225q0 68 47 109.5t103 41.5q52 0 86.5 -33.5t34.5 -80.5q0 -68 -47 -110t-103 -42q-52 0 -86.5 33.5t-34.5 81.5zM-268 -377l51 172q32 -14 72 -14q122 0 159 162l234 1046h215l-234 -1046q-37 -167 -121 -255.5t-231 -88.5q-81 0 -145 24z" />
<glyph unicode="k" horiz-adv-x="1077" d="M694 0l-217 414l-176 -148l-57 -266h-215l301 1366h215l-187 -842l531 465h276l-512 -448l301 -541h-260z" />
<glyph unicode="l" horiz-adv-x="493" d="M29 0l301 1366h215l-301 -1366h-215z" />
<glyph unicode="m" horiz-adv-x="1705" d="M1241 0l139 631q9 45 9 61q0 59 -45 95t-109 36q-60 0 -122.5 -38t-111.5 -95l-151 -690h-215l139 631q8 46 8 71q-2 52 -42.5 86.5t-112.5 34.5q-60 0 -120.5 -38t-111.5 -95l-151 -690h-215l219 989h215l-31 -135q144 160 305 160q65 0 118.5 -21t83 -51t45 -57 t15.5 -45v-4q64 79 152.5 128.5t194.5 49.5q113 0 192.5 -67t79.5 -183q0 -32 -10 -82l-152 -682h-215z" />
<glyph unicode="n" horiz-adv-x="1161" d="M696 0l138 621q10 45 10 61q0 70 -47.5 105.5t-118.5 35.5q-150 0 -283 -133l-151 -690h-215l219 989h215l-31 -135q168 160 338 160q139 0 221 -67t82 -183q0 -32 -10 -82l-152 -682h-215z" />
<glyph unicode="o" horiz-adv-x="1173" d="M66 420q0 115 42.5 223t115.5 190t179 131.5t226 49.5q221 0 348 -124t127 -323q0 -115 -42.5 -222.5t-115.5 -189.5t-179 -131t-226 -49q-222 0 -348.5 123t-126.5 322zM881 559q0 122 -68.5 193t-189.5 71q-143 0 -238.5 -118.5t-95.5 -274.5q0 -122 68.5 -193 t189.5 -71q95 0 173 56t119.5 145.5t41.5 191.5z" />
<glyph unicode="p" horiz-adv-x="1183" d="M274 141l-114 -518h-215l303 1366h215l-31 -131q131 156 311 156q170 0 274.5 -109t104.5 -301q0 -116 -36 -228t-100.5 -201.5t-164.5 -144.5t-219 -55q-106 0 -192 44t-136 122zM897 561q0 118 -68.5 190t-175.5 72q-76 0 -144.5 -39.5t-115.5 -101.5l-84 -383 q35 -59 103.5 -96t156.5 -37q142 0 235 118t93 277z" />
<glyph unicode="q" horiz-adv-x="1183" d="M913 848l31 141h215l-303 -1366h-215l113 508q-128 -156 -310 -156q-172 0 -275 108t-103 300q0 117 35.5 229t100 202t165 145t219.5 55q105 0 191 -44.5t136 -121.5zM291 426q0 -119 67.5 -189.5t176.5 -70.5q75 0 144 39t114 100l86 383q-35 60 -104.5 97.5 t-156.5 37.5q-94 0 -170 -56t-116.5 -146.5t-40.5 -194.5z" />
<glyph unicode="r" horiz-adv-x="710" d="M29 0l219 989h215l-33 -139q73 81 157.5 121.5t200.5 40.5l-47 -215q-35 10 -88 10q-73 0 -144 -39t-118 -98l-147 -670h-215z" />
<glyph unicode="s" horiz-adv-x="966" d="M-8 152l127 149q45 -61 140.5 -108.5t197.5 -47.5q80 0 129 39.5t49 94.5q0 24 -14 43.5t-48 37.5t-58 27.5t-77 28.5q-43 15 -63.5 23t-60 25t-60.5 30t-50 35.5t-43 44.5t-25 52.5t-11 65.5q0 133 105.5 227.5t287.5 94.5q123 0 231 -45t171 -117l-115 -141 q-37 52 -120.5 91.5t-172.5 39.5q-81 0 -127.5 -33t-46.5 -84q0 -14 6 -26.5t21.5 -24.5t28 -20.5t40.5 -20t43.5 -17t50.5 -18.5q42 -15 64 -23t62 -25.5t62.5 -31.5t51.5 -36.5t44.5 -46t26.5 -55t11 -67.5q0 -142 -112 -240t-300 -98q-136 0 -253 46t-193 131z" />
<glyph unicode="t" horiz-adv-x="653" d="M119 176q0 30 6 64l125 563h-164l43 186h164l59 271h215l-59 -271h201l-43 -186h-201l-113 -510q-4 -20 -4 -39q0 -88 98 -88q51 0 82 27l13 -173q-57 -45 -158 -45q-124 0 -194 50.5t-70 150.5z" />
<glyph unicode="u" horiz-adv-x="1161" d="M463 989l-137 -618q-11 -49 -11 -64q0 -71 51 -106t134 -35q129 0 264 135l151 688h215l-219 -989h-215l31 135q-168 -160 -338 -160q-139 0 -221 67t-82 183q0 32 10 82l152 682h215z" />
<glyph unicode="v" horiz-adv-x="1030" d="M289 0l-185 989h224l123 -741l454 741h238l-623 -989h-231z" />
<glyph unicode="w" horiz-adv-x="1544" d="M891 0l-70 725l-389 -725h-225l-88 989h215l49 -719l395 719h191l73 -719l369 719h231l-526 -989h-225z" />
<glyph unicode="x" horiz-adv-x="1015" d="M662 0l-177 365l-338 -365h-247l473 508l-234 481h234l159 -336l310 336h250l-451 -481l254 -508h-233z" />
<glyph unicode="y" horiz-adv-x="1030" d="M-25 -190q39 -17 99 -17q41 0 72 18.5t61 63.5l78 119l-181 995h224l123 -741l454 741h238l-737 -1167q-75 -119 -157.5 -171t-195.5 -52q-85 0 -149 22z" />
<glyph unicode="z" horiz-adv-x="974" d="M-16 0l34 162l623 639h-479l41 188h776l-35 -158l-629 -645h494l-41 -186h-784z" />
<glyph unicode="{" horiz-adv-x="565" d="M238 -389q-106 0 -183.5 69t-77.5 175q0 27 7 59l86 383q4 24 4 35q0 45 -22 74.5t-58 29.5l29 127q56 0 90 38.5t47 100.5l84 381q35 152 128 229t230 77h125l-33 -148h-125q-64 0 -106.5 -41t-59.5 -117l-94 -417q-31 -149 -133 -183q60 -32 60 -112q0 -33 -9 -70 l-84 -385q-4 -24 -4 -41q0 -52 32.5 -84.5t82.5 -32.5h113l-35 -147h-94z" />
<glyph unicode="|" horiz-adv-x="438" d="M186 -41v1448h148v-1448h-148z" />
<glyph unicode="}" horiz-adv-x="565" d="M326 1389q106 0 183 -69t77 -175q0 -35 -6 -62l-86 -381q-5 -30 -5 -36q0 -45 22 -74t58 -29l-28 -127q-56 0 -90.5 -38.5t-47.5 -100.5l-84 -381q-34 -153 -127.5 -229t-230.5 -76h-125l33 147h125q130 0 166 156l94 420q31 147 133 182q-59 32 -59 113q0 36 8 69 l84 385q4 24 4 39q0 52 -32.5 85.5t-82.5 33.5h-112l34 148h95z" />
<glyph unicode="~" horiz-adv-x="1038" d="M1171 1348q-110 -494 -378 -494q-35 0 -63.5 8t-48 19t-35 31.5t-24 37.5t-16 45t-11 45t-7.5 47q-5 29 -8 44.5t-9.5 37t-14.5 32t-21 18.5t-31 8q-65 0 -125.5 -107t-95.5 -268l-148 18q21 101 51.5 184t75.5 155.5t109 113.5t141 41q25 0 46.5 -3t38.5 -11.5l31 -15.5 t25 -22t19 -24.5t15 -29.5t11 -30t9 -33t6.5 -32l5.5 -33q4 -28 6.5 -44.5t9 -37.5t14.5 -32t22 -19t32 -8q65 0 126 108.5t95 268.5z" />
<glyph unicode="&#xa1;" horiz-adv-x="501" d="M473 879q0 -63 -46.5 -108.5t-111.5 -45.5q-54 0 -91.5 38.5t-37.5 92.5q0 64 46.5 110t109.5 46q55 0 93 -38.5t38 -94.5zM358 569l-172 -946h-262l248 946h186z" />
<glyph unicode="&#xa2;" horiz-adv-x="1017" d="M586 168q115 8 200 104l119 -143q-144 -151 -360 -154l-41 -180h-160l45 199q-149 39 -235 152t-86 276q0 157 71.5 291.5t197 215t277.5 85.5l33 143h160l-37 -158q172 -41 254 -176l-162 -123q-47 78 -133 109zM287 430q0 -87 38.5 -148.5t106.5 -91.5l139 627 q-129 -24 -206.5 -134t-77.5 -253z" />
<glyph unicode="&#xa3;" horiz-adv-x="1097" d="M752 186q100 0 174 78l55 -190q-105 -101 -248 -101q-45 0 -93.5 9t-74 17t-78.5 26q-5 2 -27 8.5t-29 8.5t-26 7.5t-29 7t-25.5 4.5t-29.5 4t-28 1q-97 0 -232 -80l-45 168q135 57 224.5 156.5t89.5 205.5q0 23 -2 33h-275l33 143h193l-17 29q-25 47 -36 70t-23.5 67 t-12.5 86q0 118 70 220t190 162t261 60q165 0 292 -70t164 -192l-217 -90q-15 70 -78.5 113t-150.5 43q-113 0 -191.5 -75.5t-78.5 -194.5q0 -33 9 -66.5t16.5 -49.5t25.5 -54q17 -31 28 -58h295l-32 -143h-236q-7 -92 -70.5 -176.5t-136.5 -126.5q49 14 92 14q66 0 162 -39 q5 -2 23 -8t25 -8.5t22.5 -7t25.5 -6.5t24.5 -3.5t27.5 -1.5z" />
<glyph unicode="&#xa4;" horiz-adv-x="1253" d="M1139 948q49 -96 49 -209q0 -109 -40.5 -207t-113.5 -174l115 -141l-145 -117l-117 148q-121 -62 -256 -62q-180 0 -309 90l-201 -163l-115 143l195 158q-49 88 -49 204q0 224 149 383l-115 150l146 117l119 -154q124 62 260 62q181 0 309 -95l199 162l112 -137zM371 633 q0 -109 70 -181.5t200 -72.5q139 0 233.5 103.5t94.5 240.5q0 111 -71 184.5t-204 73.5q-140 0 -231.5 -104t-91.5 -244z" />
<glyph unicode="&#xa5;" horiz-adv-x="1304" d="M1495 1366l-584 -661h394l-31 -138h-483l-41 -188h481l-31 -137h-481l-53 -242h-240l53 242h-491l30 137h492l41 188h-490l31 138h397l-292 661h260l248 -586l501 586h289z" />
<glyph unicode="&#xa6;" horiz-adv-x="438" d="M186 760v647h148v-647h-148zM186 -41v647h148v-647h-148z" />
<glyph unicode="&#xa7;" horiz-adv-x="976" d="M684 373q131 -72 131 -207q0 -139 -111.5 -235.5t-291.5 -96.5q-148 0 -269 44t-198 124l125 129q54 -66 146.5 -105.5t193.5 -39.5q84 0 137 43t53 106q0 23 -11.5 43t-27.5 34t-46.5 29.5t-53.5 24t-64 23.5q-135 51 -187 86q-112 74 -112 194q0 103 71 179t206 106 q-78 34 -122 89.5t-44 131.5q0 131 108.5 221t282.5 90q279 0 420 -151l-117 -119q-45 56 -126 86.5t-169 30.5q-85 0 -135.5 -38t-50.5 -95q0 -23 11.5 -42.5t27 -32.5t47 -27.5t53.5 -23t64 -22.5q42 -15 62 -22.5t58.5 -24.5t58.5 -30.5t48 -36t41.5 -45t24 -54 t10.5 -67.5q0 -100 -64.5 -181.5t-179.5 -117.5zM543 780q-115 -14 -172.5 -61t-57.5 -111q0 -59 51 -94.5t158 -71.5q94 26 139.5 76t45.5 107q0 58 -44 93.5t-120 61.5z" />
<glyph unicode="&#xa8;" horiz-adv-x="583" d="M227 1124q-44 0 -75 31.5t-31 75.5q0 53 41 93t94 40q46 0 76 -30.5t30 -76.5q0 -53 -40.5 -93t-94.5 -40zM655 1124q-44 0 -75 31.5t-31 75.5q0 53 41 93t94 40q46 0 76.5 -30.5t30.5 -76.5q0 -53 -41 -93t-95 -40z" />
<glyph unicode="&#xa9;" horiz-adv-x="1593" d="M836 -23q-191 0 -353.5 95t-257 258t-94.5 354q0 192 94.5 355t257 257.5t353.5 94.5q192 0 355 -94.5t258 -257.5t95 -355q0 -143 -56 -274t-151 -226t-226 -151t-275 -56zM836 1321q-129 0 -246.5 -50.5t-202.5 -136t-135.5 -203.5t-50.5 -247t50.5 -247t135.5 -203.5 t202.5 -136t246.5 -50.5t247 50.5t204 136t137 203.5t51 247t-51 247t-137 203.5t-204 136t-247 50.5zM1081 358q-131 -108 -280 -108q-178 0 -284.5 107.5t-106.5 271.5q0 102 40.5 194t106.5 156t153.5 101.5t178.5 37.5q223 0 323 -164l-71 -51q-74 139 -256 139 q-95 0 -183.5 -51.5t-147 -148t-58.5 -211.5q0 -127 84.5 -216t222.5 -89q64 0 126 27.5t107 70.5z" />
<glyph unicode="&#xaa;" horiz-adv-x="843" d="M911 1311l-143 -643h-160l19 86q-87 -103 -205 -103q-108 0 -182 71.5t-74 201.5q0 167 100.5 285t245.5 118q150 0 221 -102l19 86h159zM332 942q0 -80 42.5 -122t112.5 -42q91 0 166 82l60 268q-23 33 -67.5 52.5t-96.5 19.5q-91 0 -154 -77t-63 -181z" />
<glyph unicode="&#xab;" horiz-adv-x="1001" d="M305 129l-246 369l410 362h211l-418 -373l238 -358h-195zM653 129l-245 369l409 362h211l-418 -373l238 -358h-195z" />
<glyph unicode="&#xac;" horiz-adv-x="1044" d="M950 420h-143l86 389h-766l31 139h909z" />
<glyph unicode="&#xad;" horiz-adv-x="614" d="M39 403l41 185h491l-41 -185h-491z" />
<glyph unicode="&#xae;" horiz-adv-x="1011" d="M604 518q-180 0 -306 127t-126 307q0 181 127 307.5t307 126.5q119 0 219 -57.5t157.5 -157.5t57.5 -219q0 -180 -127.5 -307t-308.5 -127zM604 1323q-155 0 -263 -108t-108 -263q0 -154 108 -263t263 -109q154 0 263.5 109t109.5 263q0 155 -109.5 263t-263.5 108z M674 702l-86 197h-92l-43 -197h-68l109 498h188q62 0 103.5 -36.5t41.5 -94.5q0 -71 -50.5 -119.5t-112.5 -48.5l90 -199h-80zM670 1141h-121l-41 -180h135q49 0 81 29.5t32 72.5q0 35 -23 56.5t-63 21.5z" />
<glyph unicode="&#xaf;" horiz-adv-x="743" d="M145 1159l29 127h741l-28 -127h-742z" />
<glyph unicode="&#xb0;" horiz-adv-x="618" d="M444 856q-109 0 -186.5 77t-77.5 187q0 109 77.5 187.5t186.5 78.5q110 0 188.5 -78.5t78.5 -187.5q0 -110 -78 -187t-189 -77zM444 1264q-58 0 -98.5 -42.5t-40.5 -101.5t39.5 -100t97.5 -41q59 0 102.5 41.5t43.5 99.5t-43 101t-101 43z" />
<glyph unicode="&#xb1;" horiz-adv-x="1028" d="M625 666l-95 -426h-151l94 426h-379l31 137h379l92 411h152l-93 -411h379l-30 -137h-379zM-51 0l28 137h910l-29 -137h-909z" />
<glyph unicode="&#xb2;" horiz-adv-x="804" d="M178 862l29 129q130 76 208.5 124t152 98.5t110.5 87t58.5 73.5t21.5 74q0 54 -44 83.5t-110 29.5q-67 0 -128 -26t-101 -67l-72 111q58 55 139.5 85t167.5 30q134 0 226 -61t92 -171q0 -60 -33 -118.5t-102 -117.5t-147.5 -111.5t-194.5 -119.5h378l-28 -133h-623z" />
<glyph unicode="&#xb3;" horiz-adv-x="804" d="M545 848q-120 0 -213 39.5t-137 109.5l104 99q40 -57 103 -86t135 -29q74 0 114.5 37t40.5 94q0 47 -51 74.5t-139 27.5q-54 0 -66 -2l29 134q62 -5 129 -5q78 0 121 30.5t43 84.5q0 49 -50.5 77t-123.5 28q-119 0 -215 -80l-60 104q56 48 134 78.5t155 30.5 q145 0 236.5 -57t91.5 -158q0 -85 -62 -143.5t-166 -65.5q69 -14 114.5 -60.5t45.5 -115.5q0 -97 -85.5 -171.5t-227.5 -74.5z" />
<glyph unicode="&#xb4;" horiz-adv-x="491" d="M295 1139h-158l352 295h209z" />
<glyph unicode="&#xb5;" horiz-adv-x="1185" d="M154 -377h-215l309 1366h215l-139 -620q-24 -101 20.5 -153t132.5 -52q75 0 151 38t130 93l153 694h215l-159 -721q-11 -47 6.5 -74.5t58.5 -27.5q21 0 41 4l-26 -182q-47 -13 -107 -13q-200 0 -203 177q-68 -78 -157 -127.5t-177 -49.5q-115 0 -153 74z" />
<glyph unicode="&#xb6;" horiz-adv-x="919" d="M532 -205l324 1458h-170l-324 -1458h-112l192 867q-116 0 -198 91t-82 228q0 97 50.5 185t143 144t203.5 56h434l-348 -1571h-113z" />
<glyph unicode="&#xb7;" horiz-adv-x="501" d="M106 489q0 64 46.5 110t111.5 46q54 0 91.5 -38.5t37.5 -94.5q0 -63 -46 -108.5t-109 -45.5q-55 0 -93.5 38.5t-38.5 92.5z" />
<glyph unicode="&#xb8;" horiz-adv-x="438" d="M-182 -315l63 88q72 -72 172 -72q53 0 83 22.5t30 59.5q0 24 -18 38.5t-50 14.5q-37 0 -65 -31l-72 48l100 170h113l-82 -132q33 23 66 23q54 0 87.5 -34t33.5 -91q0 -84 -64 -135t-164 -51q-73 0 -135 23t-98 59z" />
<glyph unicode="&#xb9;" horiz-adv-x="540" d="M332 862l131 598l-164 -135l-76 102l312 254h143l-180 -819h-166z" />
<glyph unicode="&#xba;" horiz-adv-x="829" d="M162 946q0 160 113 270.5t270 110.5q146 0 233.5 -82.5t87.5 -214.5q0 -158 -113 -268.5t-270 -110.5q-146 0 -233.5 82t-87.5 213zM702 1032q0 74 -44 118t-117 44q-98 0 -156.5 -76t-58.5 -176q0 -74 44 -118t117 -44q98 0 156.5 76t58.5 176z" />
<glyph unicode="&#xbb;" horiz-adv-x="1001" d="M352 860l246 -368l-410 -363h-211l418 373l-237 358h194zM700 860l246 -368l-409 -363h-211l417 373l-237 358h194z" />
<glyph unicode="&#xbc;" horiz-adv-x="1650" d="M283 0h-138l1174 1366h139zM262 547l131 598l-164 -135l-75 102l311 254h143l-180 -819h-166zM1407 188l-41 -188h-164l41 188h-401l24 115l451 516h229l-110 -500h112l-28 -131h-113zM1350 670l-314 -351h236z" />
<glyph unicode="&#xbd;" horiz-adv-x="1722" d="M283 0h-138l1174 1366h139zM262 547l131 598l-164 -135l-75 102l311 254h143l-180 -819h-166zM903 0l29 129q130 76 208.5 124t152 98.5t110.5 87t58.5 73.5t21.5 74q0 54 -44 83t-110 29q-67 0 -128 -25.5t-101 -66.5l-72 111q58 55 139.5 84.5t167.5 29.5 q134 0 226 -60.5t92 -170.5q0 -60 -33 -118.5t-102 -117.5t-147.5 -111.5t-194.5 -119.5h378l-28 -133h-623z" />
<glyph unicode="&#xbe;" horiz-adv-x="1847" d="M475 532q-120 0 -213 40t-137 110l104 98q40 -56 103 -85t135 -29q74 0 115 37t41 94q0 47 -51.5 74.5t-139.5 27.5q-53 0 -65 -2l28 133q50 -4 129 -4q78 0 121 30.5t43 84.5q0 49 -50.5 76.5t-123.5 27.5q-119 0 -215 -80l-59 105q56 48 133.5 78t154.5 30 q145 0 236.5 -57t91.5 -158q0 -85 -61.5 -143.5t-165.5 -65.5q68 -14 113.5 -60.5t45.5 -115.5q0 -97 -85.5 -171.5t-227.5 -74.5zM479 0h-137l1174 1366h139zM1606 188l-41 -188h-164l41 188h-402l25 115l451 516h229l-111 -500h113l-29 -131h-112zM1548 670l-313 -351h235 z" />
<glyph unicode="&#xbf;" horiz-adv-x="811" d="M702 879q0 -64 -46 -110t-111 -46q-54 0 -91.5 38.5t-37.5 94.5q0 63 46 108.5t109 45.5q55 0 93 -38.5t38 -92.5zM571 586q39 -59 39 -144q0 -47 -15.5 -88t-36 -68.5t-59 -56.5t-64.5 -44t-73 -40q-39 -21 -57.5 -32t-48 -32t-43.5 -38t-25.5 -41t-11.5 -51 q0 -64 52.5 -101.5t150.5 -37.5q158 0 276 112l103 -164q-179 -159 -414 -159q-119 0 -215 36t-152.5 105t-56.5 160q0 43 10 81t23 66.5t39 57.5t45 46t56 40.5t55.5 34t58.5 32.5q40 21 61.5 33t51.5 33t45 38.5t26.5 42.5t11.5 52q0 37 -26 67z" />
<glyph unicode="&#xc0;" horiz-adv-x="1378" d="M874 1481l-272 295h205l221 -295h-154zM1004 0l-43 262h-627l-158 -262h-285l838 1366h299l236 -1366h-260zM838 1124l-389 -651h491z" />
<glyph unicode="&#xc1;" horiz-adv-x="1378" d="M932 1481h-158l352 295h209zM1004 0l-43 262h-627l-158 -262h-285l838 1366h299l236 -1366h-260zM838 1124l-389 -651h491z" />
<glyph unicode="&#xc2;" horiz-adv-x="1378" d="M1061 1481l-115 196l-196 -196h-140l256 295h197l131 -295h-133zM1004 0l-43 262h-627l-158 -262h-285l838 1366h299l236 -1366h-260zM838 1124l-389 -651h491z" />
<glyph unicode="&#xc3;" horiz-adv-x="1378" d="M899 1567q-17 24 -27.5 35.5t-29.5 22.5t-41 11q-74 0 -107 -147h-119q54 274 242 274q37 0 67.5 -15.5t44 -30t36.5 -44.5q17 -24 27.5 -35.5t29.5 -22.5t41 -11q70 0 106 147h121q-29 -134 -87 -204t-156 -70q-37 0 -67.5 15.5t-44 30t-36.5 44.5zM1004 0l-43 262h-627 l-158 -262h-285l838 1366h299l236 -1366h-260zM838 1124l-389 -651h491z" />
<glyph unicode="&#xc4;" horiz-adv-x="1378" d="M698 1466q-44 0 -75 31.5t-31 75.5q0 53 41 93t94 40q46 0 76.5 -30.5t30.5 -76.5q0 -53 -41 -93t-95 -40zM1126 1466q-44 0 -75 31.5t-31 75.5q0 53 41 93t94 40q46 0 76.5 -30.5t30.5 -76.5q0 -53 -41 -93t-95 -40zM1004 0l-43 262h-627l-158 -262h-285l838 1366h299 l236 -1366h-260zM838 1124l-389 -651h491z" />
<glyph unicode="&#xc5;" horiz-adv-x="1378" d="M725 1602q0 92 68.5 160.5t160.5 68.5q85 0 138 -53t53 -138q0 -94 -68 -161.5t-162 -67.5q-85 0 -137.5 53t-52.5 138zM1040 1630q0 43 -25.5 69.5t-68.5 26.5q-46 0 -81.5 -34.5t-35.5 -79.5q0 -42 26.5 -69t68.5 -27q47 0 81.5 33.5t34.5 80.5zM1004 0l-43 262h-627 l-158 -262h-285l838 1366h299l236 -1366h-260zM838 1124l-389 -651h491z" />
<glyph unicode="&#xc6;" horiz-adv-x="1964" d="M821 0l58 262h-498l-215 -262h-281l1141 1366h1032l-47 -211h-696l-78 -354h682l-47 -211h-682l-84 -379h696l-45 -211h-936zM1065 1112l-522 -639h383z" />
<glyph unicode="&#xc7;" horiz-adv-x="1396" d="M772 188q91 0 182 41.5t158 114.5l182 -127q-106 -126 -248.5 -184t-287.5 -58h-41l-53 -84q33 23 65 23q53 0 87 -34t34 -91q0 -84 -64 -135t-163 -51q-73 0 -135.5 23t-98.5 59l64 88q72 -72 172 -72q53 0 82.5 22.5t29.5 59.5q0 24 -17.5 38.5t-49.5 14.5 q-38 0 -66 -31l-72 48l80 135q-228 42 -368 200.5t-140 393.5q0 178 64.5 331t172.5 256t250 161.5t296 58.5q219 0 368 -99t218 -260l-230 -82q-48 112 -145.5 170t-223.5 58q-101 0 -195.5 -43.5t-166.5 -118.5t-115 -184.5t-43 -233.5q0 -181 114 -294.5t304 -113.5z" />
<glyph unicode="&#xc8;" horiz-adv-x="1181" d="M803 1481l-273 295h205l221 -295h-153zM35 0l301 1366h936l-47 -211h-697l-77 -354h682l-48 -211h-682l-84 -379h697l-45 -211h-936z" />
<glyph unicode="&#xc9;" horiz-adv-x="1181" d="M858 1481h-158l353 295h209zM35 0l301 1366h936l-47 -211h-697l-77 -354h682l-48 -211h-682l-84 -379h697l-45 -211h-936z" />
<glyph unicode="&#xca;" horiz-adv-x="1181" d="M987 1481l-115 196l-196 -196h-139l256 295h196l131 -295h-133zM35 0l301 1366h936l-47 -211h-697l-77 -354h682l-48 -211h-682l-84 -379h697l-45 -211h-936z" />
<glyph unicode="&#xcb;" horiz-adv-x="1181" d="M625 1466q-44 0 -75.5 31.5t-31.5 75.5q0 53 41 93t94 40q46 0 76.5 -30.5t30.5 -76.5q0 -53 -40.5 -93t-94.5 -40zM1053 1466q-44 0 -75.5 31.5t-31.5 75.5q0 53 41 93t94 40q46 0 76.5 -30.5t30.5 -76.5q0 -53 -40.5 -93t-94.5 -40zM35 0l301 1366h936l-47 -211h-697 l-77 -354h682l-48 -211h-682l-84 -379h697l-45 -211h-936z" />
<glyph unicode="&#xcc;" horiz-adv-x="530" d="M453 1481l-273 295h205l221 -295h-153zM35 0l301 1366h239l-301 -1366h-239z" />
<glyph unicode="&#xcd;" horiz-adv-x="530" d="M510 1481h-158l353 295h208zM35 0l301 1366h239l-301 -1366h-239z" />
<glyph unicode="&#xce;" horiz-adv-x="530" d="M639 1481l-115 196l-196 -196h-140l256 295h197l131 -295h-133zM35 0l301 1366h239l-301 -1366h-239z" />
<glyph unicode="&#xcf;" horiz-adv-x="530" d="M276 1466q-44 0 -75 31.5t-31 75.5q0 53 41 93t94 40q46 0 76.5 -30.5t30.5 -76.5q0 -53 -41 -93t-95 -40zM705 1466q-44 0 -75.5 31.5t-31.5 75.5q0 53 41 93t94 40q46 0 76.5 -30.5t30.5 -76.5q0 -53 -40.5 -93t-94.5 -40zM35 0l301 1366h239l-301 -1366h-239z" />
<glyph unicode="&#xd0;" horiz-adv-x="1507" d="M887 1366q113 0 218.5 -43t185.5 -118.5t128.5 -186.5t48.5 -238q0 -113 -30.5 -221.5t-99 -210.5t-168 -178.5t-248 -123t-328.5 -46.5h-506l129 586h-180l43 194h180l129 586h498zM637 211q132 0 242.5 44.5t184 120.5t114.5 177t41 213q0 167 -107 278t-270 111h-260 l-82 -375h321l-43 -194h-323l-82 -375h264z" />
<glyph unicode="&#xd1;" horiz-adv-x="1474" d="M950 1567q-17 24 -27.5 35.5t-29.5 22.5t-41 11q-74 0 -107 -147h-118q54 274 241 274q37 0 67.5 -15.5t44 -30t36.5 -44.5q17 -24 27.5 -35.5t29.5 -22.5t41 -11q71 0 107 147h120q-29 -134 -87 -204t-156 -70q-37 0 -67.5 15.5t-44 30t-36.5 44.5zM987 0l-489 1012 l-224 -1012h-239l301 1366h246l479 -985l219 985h240l-301 -1366h-232z" />
<glyph unicode="&#xd2;" horiz-adv-x="1566" d="M975 1481l-273 295h205l221 -295h-153zM104 582q0 166 61 315.5t165 257.5t249.5 171t307.5 63q184 0 331.5 -72t234.5 -211t87 -322q0 -167 -61 -317t-165 -258t-249 -171t-307 -63q-137 0 -257 42.5t-208 119.5t-138.5 192t-50.5 253zM1290 768q0 187 -119 297.5 t-299 110.5q-105 0 -200.5 -44.5t-165.5 -121t-111 -185t-41 -229.5q0 -189 118 -298.5t300 -109.5q140 0 259 75.5t189 209t70 295.5z" />
<glyph unicode="&#xd3;" horiz-adv-x="1566" d="M1030 1481h-158l353 295h209zM104 582q0 166 61 315.5t165 257.5t249.5 171t307.5 63q184 0 331.5 -72t234.5 -211t87 -322q0 -167 -61 -317t-165 -258t-249 -171t-307 -63q-137 0 -257 42.5t-208 119.5t-138.5 192t-50.5 253zM1290 768q0 187 -119 297.5t-299 110.5 q-105 0 -200.5 -44.5t-165.5 -121t-111 -185t-41 -229.5q0 -189 118 -298.5t300 -109.5q140 0 259 75.5t189 209t70 295.5z" />
<glyph unicode="&#xd4;" horiz-adv-x="1566" d="M1161 1481l-114 196l-197 -196h-139l256 295h196l131 -295h-133zM104 582q0 166 61 315.5t165 257.5t249.5 171t307.5 63q184 0 331.5 -72t234.5 -211t87 -322q0 -167 -61 -317t-165 -258t-249 -171t-307 -63q-137 0 -257 42.5t-208 119.5t-138.5 192t-50.5 253z M1290 768q0 187 -119 297.5t-299 110.5q-105 0 -200.5 -44.5t-165.5 -121t-111 -185t-41 -229.5q0 -189 118 -298.5t300 -109.5q140 0 259 75.5t189 209t70 295.5z" />
<glyph unicode="&#xd5;" horiz-adv-x="1566" d="M997 1567q-17 24 -27.5 35.5t-29.5 22.5t-41 11q-73 0 -106 -147h-119q54 274 241 274q37 0 67.5 -15.5t44 -30t36.5 -44.5q17 -24 27.5 -35.5t29.5 -22.5t41 -11q71 0 107 147h121q-29 -133 -87.5 -203.5t-156.5 -70.5q-37 0 -67.5 15.5t-44 30t-36.5 44.5zM104 582 q0 166 61 315.5t165 257.5t249.5 171t307.5 63q184 0 331.5 -72t234.5 -211t87 -322q0 -167 -61 -317t-165 -258t-249 -171t-307 -63q-137 0 -257 42.5t-208 119.5t-138.5 192t-50.5 253zM1290 768q0 187 -119 297.5t-299 110.5q-105 0 -200.5 -44.5t-165.5 -121t-111 -185 t-41 -229.5q0 -189 118 -298.5t300 -109.5q140 0 259 75.5t189 209t70 295.5z" />
<glyph unicode="&#xd6;" horiz-adv-x="1566" d="M795 1466q-44 0 -75.5 31.5t-31.5 75.5q0 53 41 93t94 40q46 0 76.5 -30.5t30.5 -76.5q0 -53 -40.5 -93t-94.5 -40zM1223 1466q-44 0 -75.5 31.5t-31.5 75.5q0 53 41 93t94 40q46 0 76.5 -30.5t30.5 -76.5q0 -53 -40.5 -93t-94.5 -40zM104 582q0 166 61 315.5t165 257.5 t249.5 171t307.5 63q184 0 331.5 -72t234.5 -211t87 -322q0 -167 -61 -317t-165 -258t-249 -171t-307 -63q-137 0 -257 42.5t-208 119.5t-138.5 192t-50.5 253zM1290 768q0 187 -119 297.5t-299 110.5q-105 0 -200.5 -44.5t-165.5 -121t-111 -185t-41 -229.5 q0 -189 118 -298.5t300 -109.5q140 0 259 75.5t189 209t70 295.5z" />
<glyph unicode="&#xd7;" horiz-adv-x="1028" d="M541 586l-365 -299l-86 104l369 301l-228 291l111 90l223 -291l367 299l86 -106l-367 -301l226 -291l-109 -88z" />
<glyph unicode="&#xd8;" horiz-adv-x="1566" d="M1544 1366l-162 -170q158 -164 158 -412q0 -167 -61 -317t-165 -258t-249 -171t-307 -63q-240 0 -412 121l-92 -96h-178l172 182q-144 163 -144 400q0 166 61 315.5t165 257.5t249.5 171t307.5 63q226 0 397 -111l82 88h178zM354 596q0 -136 64 -234l702 744 q-109 70 -248 70q-105 0 -200.5 -44.5t-165.5 -121t-111 -185t-41 -229.5zM1290 768q0 146 -76 248l-706 -748q113 -80 264 -80q140 0 259 75.5t189 209t70 295.5z" />
<glyph unicode="&#xd9;" horiz-adv-x="1472" d="M924 1481l-273 295h205l221 -295h-153zM143 442q0 42 11 97l182 827h242l-181 -821q-8 -28 -8 -76q0 -123 85 -203t237 -80q163 0 254.5 93t128.5 266l182 821h242l-183 -825q-29 -132 -75 -230.5t-118.5 -176.5t-181 -118.5t-249.5 -40.5q-272 0 -420 126t-148 341z" />
<glyph unicode="&#xda;" horiz-adv-x="1472" d="M981 1481h-158l353 295h208zM143 442q0 42 11 97l182 827h242l-181 -821q-8 -28 -8 -76q0 -123 85 -203t237 -80q163 0 254.5 93t128.5 266l182 821h242l-183 -825q-29 -132 -75 -230.5t-118.5 -176.5t-181 -118.5t-249.5 -40.5q-272 0 -420 126t-148 341z" />
<glyph unicode="&#xdb;" horiz-adv-x="1472" d="M1110 1481l-115 196l-196 -196h-140l256 295h197l131 -295h-133zM143 442q0 42 11 97l182 827h242l-181 -821q-8 -28 -8 -76q0 -123 85 -203t237 -80q163 0 254.5 93t128.5 266l182 821h242l-183 -825q-29 -132 -75 -230.5t-118.5 -176.5t-181 -118.5t-249.5 -40.5 q-272 0 -420 126t-148 341z" />
<glyph unicode="&#xdc;" horiz-adv-x="1472" d="M745 1466q-44 0 -75 31.5t-31 75.5q0 53 41 93t94 40q46 0 76.5 -30.5t30.5 -76.5q0 -53 -41 -93t-95 -40zM1174 1466q-44 0 -75.5 31.5t-31.5 75.5q0 53 41 93t94 40q46 0 76.5 -30.5t30.5 -76.5q0 -53 -40.5 -93t-94.5 -40zM143 442q0 42 11 97l182 827h242l-181 -821 q-8 -28 -8 -76q0 -123 85 -203t237 -80q163 0 254.5 93t128.5 266l182 821h242l-183 -825q-29 -132 -75 -230.5t-118.5 -176.5t-181 -118.5t-249.5 -40.5q-272 0 -420 126t-148 341z" />
<glyph unicode="&#xdd;" horiz-adv-x="1304" d="M897 1481h-158l353 295h208zM422 0l125 567l-354 799h260l247 -586l502 586h289l-705 -799l-124 -567h-240z" />
<glyph unicode="&#xde;" horiz-adv-x="1245" d="M35 0l301 1366h239l-51 -231h344q158 0 264.5 -108t106.5 -259q0 -69 -18.5 -136t-60.5 -131t-103.5 -112.5t-155 -78t-207.5 -29.5h-358l-62 -281h-239zM989 743q0 78 -56 129.5t-138 51.5h-318l-94 -432h326q132 0 206 73t74 178z" />
<glyph unicode="&#xdf;" horiz-adv-x="1275" d="M801 -25q-143 0 -243.5 43.5t-186.5 139.5l125 137q120 -148 311 -148q84 0 133 41t49 97q0 15 -5.5 28.5t-21 25.5t-26.5 19.5t-38.5 19t-40.5 16.5t-48 18q-41 14 -58.5 20.5t-55 22t-55.5 27t-45 32.5t-40 41.5t-23 50t-10 62.5q0 35 8 66t18.5 53.5t32 46t36 37 t44.5 32.5t43.5 26.5t45.5 24.5q38 21 53 29.5t38.5 26t32.5 33.5t9 36q0 52 -53.5 84.5t-129.5 32.5q-90 0 -152.5 -53.5t-84.5 -149.5l-219 -993h-215l219 993q39 173 157 283t304 110q100 0 191 -32t150.5 -95t59.5 -143q0 -55 -18.5 -98t-57.5 -76.5t-68 -51t-81 -44.5 q-38 -20 -58.5 -31.5t-45 -30.5t-35.5 -39.5t-11 -44.5q0 -17 10 -31.5t23 -25t40.5 -22.5t45.5 -19t55 -20q40 -14 59.5 -21t56.5 -23.5t57 -29.5t47 -35t40.5 -44t24 -53.5t10.5 -66.5q0 -135 -111.5 -234.5t-291.5 -99.5z" />
<glyph unicode="&#xe0;" d="M698 1139l-272 295h205l221 -295h-154zM913 848l31 141h215l-219 -989h-215l29 131q-128 -156 -310 -156q-172 0 -275 108t-103 300q0 117 35.5 229t100 202t165 145t219.5 55q105 0 191 -44.5t136 -121.5zM291 426q0 -119 67.5 -189.5t176.5 -70.5q75 0 144 39t114 100 l86 383q-35 60 -104.5 97.5t-156.5 37.5q-94 0 -170 -56t-116.5 -146.5t-40.5 -194.5z" />
<glyph unicode="&#xe1;" d="M754 1139h-158l352 295h209zM913 848l31 141h215l-219 -989h-215l29 131q-128 -156 -310 -156q-172 0 -275 108t-103 300q0 117 35.5 229t100 202t165 145t219.5 55q105 0 191 -44.5t136 -121.5zM291 426q0 -119 67.5 -189.5t176.5 -70.5q75 0 144 39t114 100l86 383 q-35 60 -104.5 97.5t-156.5 37.5q-94 0 -170 -56t-116.5 -146.5t-40.5 -194.5z" />
<glyph unicode="&#xe2;" d="M887 1139l-115 196l-197 -196h-139l256 295h197l131 -295h-133zM913 848l31 141h215l-219 -989h-215l29 131q-128 -156 -310 -156q-172 0 -275 108t-103 300q0 117 35.5 229t100 202t165 145t219.5 55q105 0 191 -44.5t136 -121.5zM291 426q0 -119 67.5 -189.5 t176.5 -70.5q75 0 144 39t114 100l86 383q-35 60 -104.5 97.5t-156.5 37.5q-94 0 -170 -56t-116.5 -146.5t-40.5 -194.5z" />
<glyph unicode="&#xe3;" d="M725 1225q-17 24 -27.5 35.5t-29.5 22.5t-41 11q-74 0 -107 -147h-119q54 274 242 274q37 0 67.5 -15.5t44 -30t36.5 -44.5q17 -24 27.5 -35.5t29.5 -22.5t41 -11q70 0 106 147h121q-29 -133 -87.5 -203.5t-156.5 -70.5q-37 0 -67.5 15.5t-43.5 30t-36 44.5zM913 848 l31 141h215l-219 -989h-215l29 131q-128 -156 -310 -156q-172 0 -275 108t-103 300q0 117 35.5 229t100 202t165 145t219.5 55q105 0 191 -44.5t136 -121.5zM291 426q0 -119 67.5 -189.5t176.5 -70.5q75 0 144 39t114 100l86 383q-35 60 -104.5 97.5t-156.5 37.5 q-94 0 -170 -56t-116.5 -146.5t-40.5 -194.5z" />
<glyph unicode="&#xe4;" d="M522 1124q-44 0 -75 31.5t-31 75.5q0 53 41 93t94 40q46 0 76 -30.5t30 -76.5q0 -53 -40.5 -93t-94.5 -40zM950 1124q-44 0 -75 31.5t-31 75.5q0 53 41 93t94 40q46 0 76 -30.5t30 -76.5q0 -53 -40.5 -93t-94.5 -40zM913 848l31 141h215l-219 -989h-215l29 131 q-128 -156 -310 -156q-172 0 -275 108t-103 300q0 117 35.5 229t100 202t165 145t219.5 55q105 0 191 -44.5t136 -121.5zM291 426q0 -119 67.5 -189.5t176.5 -70.5q75 0 144 39t114 100l86 383q-35 60 -104.5 97.5t-156.5 37.5q-94 0 -170 -56t-116.5 -146.5t-40.5 -194.5z " />
<glyph unicode="&#xe5;" d="M555 1288q0 92 68.5 161t160.5 69q85 0 138 -53t53 -138q0 -94 -68 -161.5t-162 -67.5q-85 0 -137.5 52.5t-52.5 137.5zM870 1317q0 43 -25.5 69.5t-68.5 26.5q-46 0 -81.5 -34.5t-35.5 -80.5q0 -42 26.5 -69t68.5 -27q47 0 81.5 34t34.5 81zM913 848l31 141h215 l-219 -989h-215l29 131q-128 -156 -310 -156q-172 0 -275 108t-103 300q0 117 35.5 229t100 202t165 145t219.5 55q105 0 191 -44.5t136 -121.5zM291 426q0 -119 67.5 -189.5t176.5 -70.5q75 0 144 39t114 100l86 383q-35 60 -104.5 97.5t-156.5 37.5q-94 0 -170 -56 t-116.5 -146.5t-40.5 -194.5z" />
<glyph unicode="&#xe6;" horiz-adv-x="1892" d="M940 0h-215l29 131q-128 -156 -310 -156q-172 0 -275 108t-103 300q0 117 35.5 229t100 202t165 145t219.5 55q105 0 191 -44.5t136 -121.5l31 141h215l-31 -143q59 72 144 120t184 48q179 0 275 -111.5t96 -312.5q0 -85 -21 -166h-762q-2 -6 -2 -35q0 -93 78.5 -163 t220.5 -70q71 0 139.5 22t118.5 62l70 -156q-71 -50 -157.5 -79.5t-161.5 -29.5q-146 0 -236.5 60t-130.5 160zM1626 575q2 6 2 29q0 101 -64.5 167.5t-187.5 66.5q-115 0 -202.5 -78t-108.5 -185h561zM291 426q0 -119 67.5 -189.5t176.5 -70.5q75 0 144 39t114 100l86 383 q-35 60 -104.5 97.5t-156.5 37.5q-94 0 -170 -56t-116.5 -146.5t-40.5 -194.5z" />
<glyph unicode="&#xe7;" horiz-adv-x="1017" d="M561 166q66 0 124.5 29t100.5 77l119 -143q-146 -154 -364 -154h-19l-53 -84q33 23 66 23q53 0 86.5 -33.5t33.5 -91.5q0 -84 -64 -135t-163 -51q-73 0 -135 23t-98 59l63 88q72 -72 172 -72q53 0 83 22.5t30 59.5q0 24 -18 38.5t-50 14.5q-37 0 -65 -31l-72 48l80 135 q-161 33 -255.5 148t-94.5 286q0 161 74.5 297t205 215.5t287.5 79.5q274 0 389 -191l-162 -123q-34 58 -93.5 90.5t-131.5 32.5q-155 0 -252.5 -115.5t-97.5 -277.5q0 -125 77 -194.5t197 -69.5z" />
<glyph unicode="&#xe8;" horiz-adv-x="1140" d="M694 1139l-272 295h205l221 -295h-154zM68 418q0 161 73 297.5t203.5 217.5t288.5 81q193 0 314.5 -120.5t121.5 -318.5q0 -81 -18 -151h-766l-2 -35q0 -93 80 -165t221 -72q70 0 141.5 21t122.5 60l67 -149q-69 -51 -161.5 -80t-186.5 -29q-230 0 -364.5 119.5 t-134.5 323.5zM874 575q3 9 3 29q0 101 -68 167.5t-193 66.5q-114 0 -201 -78t-108 -185h567z" />
<glyph unicode="&#xe9;" horiz-adv-x="1140" d="M754 1139h-158l352 295h209zM68 418q0 161 73 297.5t203.5 217.5t288.5 81q193 0 314.5 -120.5t121.5 -318.5q0 -81 -18 -151h-766l-2 -35q0 -93 80 -165t221 -72q70 0 141.5 21t122.5 60l67 -149q-69 -51 -161.5 -80t-186.5 -29q-230 0 -364.5 119.5t-134.5 323.5z M874 575q3 9 3 29q0 101 -68 167.5t-193 66.5q-114 0 -201 -78t-108 -185h567z" />
<glyph unicode="&#xea;" horiz-adv-x="1140" d="M879 1139l-115 196l-197 -196h-139l256 295h197l131 -295h-133zM68 418q0 161 73 297.5t203.5 217.5t288.5 81q193 0 314.5 -120.5t121.5 -318.5q0 -81 -18 -151h-766l-2 -35q0 -93 80 -165t221 -72q70 0 141.5 21t122.5 60l67 -149q-69 -51 -161.5 -80t-186.5 -29 q-230 0 -364.5 119.5t-134.5 323.5zM874 575q3 9 3 29q0 101 -68 167.5t-193 66.5q-114 0 -201 -78t-108 -185h567z" />
<glyph unicode="&#xeb;" horiz-adv-x="1140" d="M520 1124q-44 0 -75 31.5t-31 75.5q0 53 41 93t94 40q46 0 76 -30.5t30 -76.5q0 -53 -40.5 -93t-94.5 -40zM948 1124q-44 0 -75 31.5t-31 75.5q0 53 41 93t94 40q46 0 76 -30.5t30 -76.5q0 -53 -40.5 -93t-94.5 -40zM68 418q0 161 73 297.5t203.5 217.5t288.5 81 q193 0 314.5 -120.5t121.5 -318.5q0 -81 -18 -151h-766l-2 -35q0 -93 80 -165t221 -72q70 0 141.5 21t122.5 60l67 -149q-69 -51 -161.5 -80t-186.5 -29q-230 0 -364.5 119.5t-134.5 323.5zM874 575q3 9 3 29q0 101 -68 167.5t-193 66.5q-114 0 -201 -78t-108 -185h567z" />
<glyph unicode="&#xec;" horiz-adv-x="493" d="M358 1139l-272 295h205l221 -295h-154zM29 0l219 989h215l-219 -989h-215z" />
<glyph unicode="&#xed;" horiz-adv-x="493" d="M418 1139h-158l352 295h209zM29 0l219 989h215l-219 -989h-215z" />
<glyph unicode="&#xee;" horiz-adv-x="493" d="M547 1139l-115 196l-196 -196h-140l256 295h197l131 -295h-133zM29 0l219 989h215l-219 -989h-215z" />
<glyph unicode="&#xef;" horiz-adv-x="493" d="M184 1124q-44 0 -75 31.5t-31 75.5q0 53 41 93t94 40q46 0 76 -30.5t30 -76.5q0 -53 -40.5 -93t-94.5 -40zM612 1124q-44 0 -75 31.5t-31 75.5q0 53 41 93t94 40q46 0 76.5 -30.5t30.5 -76.5q0 -53 -41 -93t-95 -40zM29 0l219 989h215l-219 -989h-215z" />
<glyph unicode="&#xf0;" horiz-adv-x="1173" d="M891 1180q221 -269 221 -557q0 -177 -68.5 -323.5t-199 -235.5t-297.5 -89q-217 0 -350.5 118t-133.5 308q0 153 67 281t183 202t254 74q113 0 202.5 -55.5t135.5 -165.5q-50 186 -243 375l-326 -96l-31 102l266 80q-59 50 -120 96l151 158q115 -87 209 -184l225 67 l31 -102zM549 166q136 0 228.5 104t92.5 254q0 63 -27.5 117t-90 90.5t-150.5 36.5q-132 0 -223.5 -102t-91.5 -250q0 -114 69 -182t193 -68z" />
<glyph unicode="&#xf1;" horiz-adv-x="1161" d="M715 1225q-25 35 -46 52t-53 17q-73 0 -106 -147h-119q54 274 242 274q37 0 67.5 -15.5t43.5 -30t36 -44.5q25 -35 46 -52t53 -17q70 0 106 147h121q-29 -133 -87.5 -203.5t-156.5 -70.5q-37 0 -67.5 15.5t-43.5 30t-36 44.5zM696 0l138 621q10 45 10 61 q0 70 -47.5 105.5t-118.5 35.5q-150 0 -283 -133l-151 -690h-215l219 989h215l-31 -135q168 160 338 160q139 0 221 -67t82 -183q0 -32 -10 -82l-152 -682h-215z" />
<glyph unicode="&#xf2;" horiz-adv-x="1173" d="M700 1139l-272 295h205l221 -295h-154zM66 420q0 115 42.5 223t115.5 190t179 131.5t226 49.5q221 0 348 -124t127 -323q0 -115 -42.5 -222.5t-115.5 -189.5t-179 -131t-226 -49q-222 0 -348.5 123t-126.5 322zM881 559q0 122 -68.5 193t-189.5 71q-143 0 -238.5 -118.5 t-95.5 -274.5q0 -122 68.5 -193t189.5 -71q95 0 173 56t119.5 145.5t41.5 191.5z" />
<glyph unicode="&#xf3;" horiz-adv-x="1173" d="M754 1139h-158l352 295h209zM66 420q0 115 42.5 223t115.5 190t179 131.5t226 49.5q221 0 348 -124t127 -323q0 -115 -42.5 -222.5t-115.5 -189.5t-179 -131t-226 -49q-222 0 -348.5 123t-126.5 322zM881 559q0 122 -68.5 193t-189.5 71q-143 0 -238.5 -118.5 t-95.5 -274.5q0 -122 68.5 -193t189.5 -71q95 0 173 56t119.5 145.5t41.5 191.5z" />
<glyph unicode="&#xf4;" horiz-adv-x="1173" d="M885 1139l-115 196l-197 -196h-139l256 295h197l131 -295h-133zM66 420q0 115 42.5 223t115.5 190t179 131.5t226 49.5q221 0 348 -124t127 -323q0 -115 -42.5 -222.5t-115.5 -189.5t-179 -131t-226 -49q-222 0 -348.5 123t-126.5 322zM881 559q0 122 -68.5 193 t-189.5 71q-143 0 -238.5 -118.5t-95.5 -274.5q0 -122 68.5 -193t189.5 -71q95 0 173 56t119.5 145.5t41.5 191.5z" />
<glyph unicode="&#xf5;" horiz-adv-x="1173" d="M727 1225q-17 24 -27.5 35.5t-29.5 22.5t-41 11q-74 0 -107 -147h-119q54 274 242 274q37 0 67.5 -15.5t44 -30t36.5 -44.5q17 -24 27.5 -35.5t29.5 -22.5t41 -11q70 0 106 147h121q-29 -133 -87.5 -203.5t-156.5 -70.5q-37 0 -67.5 15.5t-43.5 30t-36 44.5zM66 420 q0 115 42.5 223t115.5 190t179 131.5t226 49.5q221 0 348 -124t127 -323q0 -115 -42.5 -222.5t-115.5 -189.5t-179 -131t-226 -49q-222 0 -348.5 123t-126.5 322zM881 559q0 122 -68.5 193t-189.5 71q-143 0 -238.5 -118.5t-95.5 -274.5q0 -122 68.5 -193t189.5 -71 q95 0 173 56t119.5 145.5t41.5 191.5z" />
<glyph unicode="&#xf6;" horiz-adv-x="1173" d="M522 1124q-44 0 -75 31.5t-31 75.5q0 53 41 93t94 40q46 0 76 -30.5t30 -76.5q0 -53 -40.5 -93t-94.5 -40zM950 1124q-44 0 -75 31.5t-31 75.5q0 53 41 93t94 40q46 0 76 -30.5t30 -76.5q0 -53 -40.5 -93t-94.5 -40zM66 420q0 115 42.5 223t115.5 190t179 131.5t226 49.5 q221 0 348 -124t127 -323q0 -115 -42.5 -222.5t-115.5 -189.5t-179 -131t-226 -49q-222 0 -348.5 123t-126.5 322zM881 559q0 122 -68.5 193t-189.5 71q-143 0 -238.5 -118.5t-95.5 -274.5q0 -122 68.5 -193t189.5 -71q95 0 173 56t119.5 145.5t41.5 191.5z" />
<glyph unicode="&#xf7;" horiz-adv-x="1046" d="M535 1055q0 50 35.5 85.5t86.5 35.5q41 0 71 -31t30 -72q0 -51 -35.5 -86t-85.5 -35q-42 0 -72 30.5t-30 72.5zM86 621l31 139h927l-30 -139h-928zM369 301q0 50 35.5 85.5t84.5 35.5q42 0 72.5 -30.5t30.5 -72.5q0 -50 -36.5 -85t-86.5 -35q-41 0 -70.5 30.5t-29.5 71.5 z" />
<glyph unicode="&#xf8;" horiz-adv-x="1173" d="M1171 989l-153 -145q86 -115 86 -277q0 -115 -42.5 -222.5t-115.5 -189.5t-179 -131t-226 -49q-201 0 -326 103l-80 -78h-147l157 152q-79 112 -79 268q0 115 42.5 223t115.5 190t179 131.5t226 49.5q191 0 317 -96l76 71h149zM289 430q0 -66 22 -121l482 461 q-65 53 -170 53q-143 0 -238.5 -118.5t-95.5 -274.5zM881 559q0 71 -25 129l-485 -463q65 -59 176 -59q95 0 173 56t119.5 145.5t41.5 191.5z" />
<glyph unicode="&#xf9;" horiz-adv-x="1161" d="M694 1139l-272 295h205l221 -295h-154zM463 989l-137 -618q-11 -49 -11 -64q0 -71 51 -106t134 -35q129 0 264 135l151 688h215l-219 -989h-215l31 135q-168 -160 -338 -160q-139 0 -221 67t-82 183q0 32 10 82l152 682h215z" />
<glyph unicode="&#xfa;" horiz-adv-x="1161" d="M750 1139h-158l352 295h209zM463 989l-137 -618q-11 -49 -11 -64q0 -71 51 -106t134 -35q129 0 264 135l151 688h215l-219 -989h-215l31 135q-168 -160 -338 -160q-139 0 -221 67t-82 183q0 32 10 82l152 682h215z" />
<glyph unicode="&#xfb;" horiz-adv-x="1161" d="M881 1139l-115 196l-197 -196h-139l256 295h197l131 -295h-133zM463 989l-137 -618q-11 -49 -11 -64q0 -71 51 -106t134 -35q129 0 264 135l151 688h215l-219 -989h-215l31 135q-168 -160 -338 -160q-139 0 -221 67t-82 183q0 32 10 82l152 682h215z" />
<glyph unicode="&#xfc;" horiz-adv-x="1161" d="M520 1124q-44 0 -75 31.5t-31 75.5q0 53 41 93t94 40q46 0 76 -30.5t30 -76.5q0 -53 -40.5 -93t-94.5 -40zM948 1124q-44 0 -75 31.5t-31 75.5q0 53 41 93t94 40q46 0 76 -30.5t30 -76.5q0 -53 -40.5 -93t-94.5 -40zM463 989l-137 -618q-11 -49 -11 -64q0 -71 51 -106 t134 -35q129 0 264 135l151 688h215l-219 -989h-215l31 135q-168 -160 -338 -160q-139 0 -221 67t-82 183q0 32 10 82l152 682h215z" />
<glyph unicode="&#xfd;" horiz-adv-x="1030" d="M680 1139h-158l352 295h209zM-25 -190q39 -17 99 -17q41 0 72 18.5t61 63.5l78 119l-181 995h224l123 -741l454 741h238l-737 -1167q-75 -119 -157.5 -171t-195.5 -52q-85 0 -149 22z" />
<glyph unicode="&#xfe;" horiz-adv-x="1183" d="M274 141l-114 -518h-215l385 1743h215l-113 -508q131 156 311 156q170 0 274.5 -109t104.5 -301q0 -116 -36 -228t-100.5 -201.5t-164.5 -144.5t-219 -55q-106 0 -192 44t-136 122zM897 561q0 118 -68.5 190t-175.5 72q-76 0 -144.5 -39.5t-115.5 -101.5l-84 -383 q35 -59 103.5 -96t156.5 -37q142 0 235 118t93 277z" />
<glyph unicode="&#xff;" horiz-adv-x="1030" d="M449 1124q-44 0 -75.5 31.5t-31.5 75.5q0 53 41 93t94 40q46 0 76.5 -30.5t30.5 -76.5q0 -53 -40.5 -93t-94.5 -40zM877 1124q-44 0 -75.5 31.5t-31.5 75.5q0 53 41 93t94 40q46 0 76.5 -30.5t30.5 -76.5q0 -53 -40.5 -93t-94.5 -40zM-25 -190q39 -17 99 -17 q41 0 72 18.5t61 63.5l78 119l-181 995h224l123 -741l454 741h238l-737 -1167q-75 -119 -157.5 -171t-195.5 -52q-85 0 -149 22z" />
<glyph unicode="&#x152;" horiz-adv-x="2238" d="M1094 0l39 178q-166 -203 -455 -203q-248 0 -411 171t-163 436q0 175 62.5 327t168.5 255.5t247 162.5t295 59q342 0 464 -270l54 250h936l-45 -211h-697l-78 -354h682l-47 -211h-682l-84 -379h697l-47 -211h-936zM1284 862q-32 148 -137 230t-260 82q-148 0 -270.5 -77 t-192.5 -209.5t-70 -291.5q0 -185 112.5 -296.5t291.5 -111.5q129 0 244.5 65t187.5 179z" />
<glyph unicode="&#x153;" horiz-adv-x="1933" d="M1090 424q0 -2 -1.5 -14.5t-1.5 -20.5q0 -96 79 -166.5t218 -70.5q70 0 141 21.5t120 59.5l67 -149q-66 -49 -156 -79t-188 -30q-83 0 -157 23.5t-124.5 61t-84 79t-48.5 82.5q-35 -43 -54 -65.5t-62.5 -63t-81.5 -61.5t-96.5 -38.5t-122.5 -17.5q-213 0 -342 118.5 t-129 326.5q0 113 41 220t112.5 190t178 133.5t227.5 50.5q80 0 149.5 -24.5t116 -63.5t77 -79.5t44.5 -80.5q38 48 70.5 82.5t86 77t121 65.5t144.5 23q187 0 309.5 -117t122.5 -322q0 -63 -19 -151h-757zM1671 575q2 8 2 29q0 100 -65.5 167t-188.5 67q-118 0 -205 -82.5 t-102 -180.5h559zM618 823q-137 0 -233 -115.5t-96 -277.5q0 -122 67.5 -193t186.5 -71q140 0 234.5 116t94.5 277q0 131 -72.5 197.5t-181.5 66.5z" />
<glyph unicode="&#x178;" horiz-adv-x="1304" d="M666 1466q-44 0 -75.5 31.5t-31.5 75.5q0 53 41 93t94 40q46 0 76.5 -30.5t30.5 -76.5q0 -53 -40.5 -93t-94.5 -40zM1094 1466q-44 0 -75.5 31.5t-31.5 75.5q0 53 41 93t94 40q46 0 76.5 -30.5t30.5 -76.5q0 -53 -40.5 -93t-94.5 -40zM422 0l125 567l-354 799h260 l247 -586l502 586h289l-705 -799l-124 -567h-240z" />
<glyph unicode="&#x2c6;" horiz-adv-x="583" d="M592 1139l-115 196l-196 -196h-140l256 295h197l131 -295h-133z" />
<glyph unicode="&#x2dc;" horiz-adv-x="657" d="M467 1225q-17 24 -27.5 35.5t-29.5 22.5t-41 11q-74 0 -107 -147h-119q54 274 242 274q37 0 67.5 -15.5t43.5 -30t36 -44.5q25 -35 46 -52t53 -17q70 0 106 147h121q-29 -133 -87.5 -203.5t-156.5 -70.5q-37 0 -67.5 15.5t-43.5 30t-36 44.5z" />
<glyph unicode="&#x2000;" horiz-adv-x="915" />
<glyph unicode="&#x2001;" horiz-adv-x="1831" />
<glyph unicode="&#x2002;" horiz-adv-x="915" />
<glyph unicode="&#x2003;" horiz-adv-x="1831" />
<glyph unicode="&#x2004;" horiz-adv-x="610" />
<glyph unicode="&#x2005;" horiz-adv-x="457" />
<glyph unicode="&#x2006;" horiz-adv-x="305" />
<glyph unicode="&#x2007;" horiz-adv-x="305" />
<glyph unicode="&#x2008;" horiz-adv-x="228" />
<glyph unicode="&#x2009;" horiz-adv-x="366" />
<glyph unicode="&#x200a;" horiz-adv-x="101" />
<glyph unicode="&#x2010;" horiz-adv-x="614" d="M39 403l41 185h491l-41 -185h-491z" />
<glyph unicode="&#x2011;" horiz-adv-x="614" d="M39 403l41 185h491l-41 -185h-491z" />
<glyph unicode="&#x2012;" horiz-adv-x="614" d="M39 403l41 185h491l-41 -185h-491z" />
<glyph unicode="&#x2013;" horiz-adv-x="1214" d="M39 403l41 185h1091l-41 -185h-1091z" />
<glyph unicode="&#x2014;" horiz-adv-x="1705" d="M39 403l41 185h1583l-41 -185h-1583z" />
<glyph unicode="&#x2018;" horiz-adv-x="499" d="M475 1386l80 -83q-60 -28 -113.5 -75.5t-74.5 -97.5q6 3 18 3q46 0 78.5 -32t32.5 -85q0 -62 -48.5 -107t-109.5 -45q-57 0 -97 38.5t-40 107.5q0 107 79 213t195 163z" />
<glyph unicode="&#x2019;" horiz-adv-x="499" d="M291 862l-80 84q60 28 113.5 75t74.5 97h-18q-47 0 -79 31t-32 84q0 62 48.5 107.5t109.5 45.5q57 0 97 -39t40 -108q0 -106 -79 -212.5t-195 -164.5z" />
<glyph unicode="&#x201a;" horiz-adv-x="501" d="M43 -260l-80 84q60 29 114.5 76t74.5 96h-21q-45 0 -76.5 31t-31.5 84q0 62 47 107.5t108 45.5q58 0 97.5 -39t39.5 -108q0 -106 -78 -212.5t-194 -164.5z" />
<glyph unicode="&#x201c;" horiz-adv-x="878" d="M483 1386l80 -83q-60 -28 -113.5 -75.5t-74.5 -97.5q6 3 18 3q46 0 78.5 -32t32.5 -85q0 -62 -48.5 -107t-109.5 -45q-57 0 -97 38.5t-40 107.5q0 107 79 213t195 163zM860 1386l80 -83q-60 -28 -113.5 -75.5t-74.5 -97.5q6 3 20 3q45 0 77 -32t32 -85q0 -62 -47.5 -107 t-108.5 -45q-58 0 -97.5 38.5t-39.5 107.5q0 107 78 213.5t194 162.5z" />
<glyph unicode="&#x201d;" horiz-adv-x="878" d="M291 862l-80 84q60 28 113.5 75t74.5 97h-18q-47 0 -79 31t-32 84q0 62 48.5 107.5t109.5 45.5q57 0 97 -39t40 -108q0 -106 -79 -212.5t-195 -164.5zM670 862l-80 84q60 28 113.5 75t74.5 97h-20q-45 0 -77 31t-32 84q0 62 47.5 107.5t108.5 45.5q58 0 97.5 -39 t39.5 -108q0 -106 -78 -212.5t-194 -164.5z" />
<glyph unicode="&#x201e;" horiz-adv-x="878" d="M43 -260l-80 84q60 29 114.5 76t74.5 96h-21q-45 0 -76.5 31t-31.5 84q0 62 47 107.5t108 45.5q58 0 97.5 -39t39.5 -108q0 -106 -78 -212.5t-194 -164.5zM420 -260l-80 84q60 28 113.5 75t74.5 97h-18q-47 0 -79 31t-32 84q0 62 48.5 107.5t109.5 45.5q57 0 97 -39 t40 -108q0 -106 -79 -212.5t-195 -164.5z" />
<glyph unicode="&#x2022;" horiz-adv-x="733" d="M340 264q-89 0 -149 60t-60 149q0 104 77.5 180t182.5 76q91 0 151 -60t60 -151q0 -104 -78.5 -179t-183.5 -75z" />
<glyph unicode="&#x2026;" horiz-adv-x="1505" d="M23 109q0 64 46 109.5t111 45.5q54 0 91.5 -38.5t37.5 -94.5q0 -63 -46 -108.5t-109 -45.5q-55 0 -93 39t-38 93zM524 109q0 64 46.5 109.5t111.5 45.5q54 0 91.5 -38.5t37.5 -94.5q0 -63 -46.5 -108.5t-109.5 -45.5q-55 0 -93 39t-38 93zM1026 109q0 64 46.5 109.5 t111.5 45.5q54 0 91.5 -38.5t37.5 -94.5q0 -63 -46.5 -108.5t-109.5 -45.5q-55 0 -93 39t-38 93z" />
<glyph unicode="&#x202f;" horiz-adv-x="366" />
<glyph unicode="&#x2039;" horiz-adv-x="653" d="M305 129l-246 369l410 362h211l-418 -373l238 -358h-195z" />
<glyph unicode="&#x203a;" horiz-adv-x="653" d="M352 860l246 -368l-410 -363h-211l418 373l-237 358h194z" />
<glyph unicode="&#x205f;" horiz-adv-x="457" />
<glyph unicode="&#x20ac;" horiz-adv-x="1439" d="M811 -25q-251 0 -429 134.5t-216 361.5h-121l31 137h82q3 78 18 152h-67l30 137h76q90 227 288 359.5t437 132.5q219 0 368 -99t218 -260l-230 -82q-48 112 -145 170t-223 58q-136 0 -256 -75t-191 -204h578l-33 -137h-598q-17 -66 -20 -152h585l-30 -137h-539 q36 -130 141.5 -206.5t259.5 -76.5q91 0 182 41.5t158 114.5l183 -127q-106 -126 -249 -184t-288 -58z" />
<glyph unicode="&#x2122;" horiz-adv-x="929" d="M399 1313l-88 -398h-57l88 398h-127l10 53h312l-11 -53h-127zM893 915l82 373l-236 -373h-16l-72 373l-82 -373h-57l98 451h88l60 -328l203 328h88l-99 -451h-57z" />
<glyph unicode="&#x25fc;" horiz-adv-x="993" d="M0 993h993v-993h-993v993z" />
</font>
</defs>
</svg>
